Coordinates
version=1
nRows=41
nColumns=24
inDegrees=yes

Units are S.I. units (second, meters, Newtons, ...)
If the header above contains a line with 'inDegrees', this indicates whether rotational values are in degrees (yes) or radians (no).

endheader
time	pelvis_tilt	pelvis_list	pelvis_rotation	pelvis_tx	pelvis_ty	pelvis_tz	hip_flexion_r	hip_adduction_r	hip_rotation_r	knee_angle_r	ankle_angle_r	subtalar_angle_r	mtp_angle_r	hip_flexion_l	hip_adduction_l	hip_rotation_l	knee_angle_l	ankle_angle_l	subtalar_angle_l	mtp_angle_l	lumbar_extension	lumbar_bending	lumbar_rotation
3.350000	10.316947	2.799845	-182.101898	0.294818	0.520783	-1.218486	76.232895	-28.428709	-8.093542	-110.574310	40.624408	11.566569	0.000000	80.295713	-34.928244	1.094018	-110.615467	41.525994	15.335088	0.000000	-12.629547	2.344468	4.612740
3.355000	10.317518	2.802901	-182.090060	0.294923	0.520491	-1.218588	76.272972	-28.430885	-8.084425	-110.625365	40.650654	11.564751	0.000000	80.362218	-34.952222	1.121850	-110.654394	41.490701	15.364826	0.000000	-12.666865	2.345379	4.594255
3.360000	10.342539	2.810714	-182.082423	0.294999	0.520187	-1.218558	76.348728	-28.461759	-8.097803	-110.688103	40.630938	11.539684	0.000000	80.458241	-34.971899	1.150938	-110.717934	41.493719	15.404546	0.000000	-12.663574	2.364321	4.652467
3.365000	10.390928	2.793888	-182.062418	0.295186	0.519865	-1.218539	76.471441	-28.496543	-8.073570	-110.742347	40.594140	11.502288	0.000000	80.560411	-34.930198	1.205181	-110.554865	41.193026	15.287769	0.000000	-12.652029	2.361343	4.621311
3.370000	10.417258	2.717361	-182.027151	0.295317	0.519578	-1.218445	76.594192	-28.584463	-7.981495	-110.792447	40.592292	11.511395	0.000000	80.707412	-34.832946	1.563383	-110.400872	40.842888	15.873787	0.000000	-12.647027	2.294368	4.613025
3.375000	10.410988	2.778661	-182.012617	0.295426	0.519341	-1.218657	76.568542	-28.567821	-8.071083	-110.829975	40.614397	11.496598	0.000000	80.685855	-34.951444	1.213800	-110.612583	41.200745	15.419468	0.000000	-12.680815	2.340228	4.652257
3.380000	10.463792	2.693217	-181.955500	0.295648	0.519067	-1.218603	76.724912	-28.661422	-7.963790	-110.870664	40.610077	11.528834	0.000000	80.838540	-34.820870	1.719585	-110.239659	40.901875	16.404810	0.000000	-12.665002	2.260923	4.574923
3.385000	10.423722	2.784690	-181.936893	0.295670	0.518890	-1.218822	76.638839	-28.638782	-8.089081	-110.914823	40.638774	11.520801	0.000000	80.846128	-34.967092	1.299877	-110.629743	41.116096	15.592195	0.000000	-12.729060	2.336413	4.595798
3.390000	10.447405	2.731147	-181.898200	0.295801	0.518644	-1.218657	76.749349	-28.727084	-8.013887	-110.960534	40.650631	11.539029	0.000000	81.000818	-34.872862	1.695853	-110.439411	40.749375	16.202508	0.000000	-12.723441	2.307005	4.566586
3.395000	10.424515	2.848491	-181.889017	0.295909	0.518482	-1.218910	76.669601	-28.679867	-8.177638	-110.992633	40.653091	11.482035	0.000000	80.969259	-35.028068	1.314577	-110.662090	41.127013	15.509151	0.000000	-12.781612	2.406383	4.619041
3.400000	10.456105	2.766188	-181.839451	0.296068	0.518244	-1.218764	76.791911	-28.782687	-8.076615	-111.023805	40.637306	11.508809	0.000000	81.150361	-34.896771	1.775851	-110.457391	40.681270	16.294780	0.000000	-12.771929	2.348615	4.567498
3.405000	10.445112	2.851743	-181.818327	0.296199	0.518046	-1.219019	76.738968	-28.754143	-8.195550	-111.051777	40.649039	11.478313	0.000000	81.106043	-35.037048	1.338396	-110.702661	41.088054	15.646346	0.000000	-12.815593	2.415980	4.584242
3.410000	10.468273	2.747566	-181.770733	0.296334	0.517849	-1.218833	76.870130	-28.862105	-8.060240	-111.086411	40.642084	11.508409	0.000000	81.270833	-34.900020	1.758981	-110.489599	40.627155	16.379575	0.000000	-12.811423	2.334530	4.520520
3.415000	10.449924	2.756954	-181.737354	0.296439	0.517712	-1.218861	76.880531	-28.899930	-8.077367	-111.133019	40.637511	11.470587	0.000000	81.322563	-34.922670	1.783614	-110.580121	40.621951	16.452806	0.000000	-12.857340	2.342114	4.514323
3.420000	10.455120	2.746179	-181.707182	0.296566	0.517554	-1.218810	76.926175	-28.940974	-8.062974	-111.165725	40.629237	11.479083	0.000000	81.353952	-34.912835	1.804089	-110.539177	40.590523	16.518268	0.000000	-12.872319	2.336143	4.508906
3.425000	10.444934	2.744012	-181.680127	0.296689	0.517399	-1.218869	76.940353	-28.962702	-8.063749	-111.189314	40.633516	11.479144	0.000000	81.391213	-34.935623	1.793528	-110.558948	40.588738	16.529928	0.000000	-12.906444	2.325855	4.504323
3.430000	10.460766	2.729176	-181.614178	0.296852	0.517256	-1.218943	76.970988	-29.014779	-8.053281	-111.206860	40.667918	11.509012	0.000000	81.447384	-34.913049	1.738528	-110.527864	40.561046	16.590188	0.000000	-12.909621	2.305874	4.446498
3.435000	10.466993	2.703269	-181.580890	0.296988	0.517100	-1.218984	77.018746	-29.053920	-8.020742	-111.231336	40.678529	11.533957	0.000000	81.477919	-34.910003	1.744642	-110.540949	40.564686	16.752554	0.000000	-12.916952	2.273519	4.442935
3.440000	10.454812	2.711740	-181.563842	0.297093	0.516976	-1.219012	77.034305	-29.068776	-8.032554	-111.266324	40.682216	11.527244	0.000000	81.505314	-34.935702	1.709360	-110.544835	40.568449	16.742615	0.000000	-12.943718	2.285895	4.451855
3.445000	10.443412	2.711522	-181.554115	0.297205	0.516843	-1.219044	77.057085	-29.079827	-8.033327	-111.301766	40.679910	11.519888	0.000000	81.529473	-34.954296	1.708234	-110.573382	40.563524	16.737408	0.000000	-12.971596	2.284685	4.459399
3.450000	10.458390	2.713938	-181.555796	0.297373	0.516653	-1.219102	77.113431	-29.066859	-8.025004	-111.331398	40.651320	11.451164	0.000000	81.595147	-34.982840	1.715545	-110.585886	40.507920	16.734306	0.000000	-12.974150	2.280609	4.497347
3.455000	10.433267	2.781623	-181.561838	0.297456	0.516511	-1.219297	77.062099	-29.018630	-8.110862	-111.358712	40.658770	11.380667	0.000000	81.500212	-35.135478	1.277021	-110.863760	40.999119	16.150113	0.000000	-13.015717	2.333943	4.526224
3.460000	10.449800	2.651798	-181.518384	0.297622	0.516348	-1.219179	77.198593	-29.114947	-7.939925	-111.385866	40.660169	11.439652	0.000000	81.656179	-34.974836	1.793302	-110.617837	40.465768	17.086170	0.000000	-13.007196	2.207058	4.459858
3.465000	10.414472	2.754784	-181.525212	0.297712	0.516260	-1.219486	77.104176	-29.033910	-8.070048	-111.404386	40.682894	11.405668	0.000000	81.534371	-35.152010	1.257179	-110.871078	40.982747	16.251955	0.000000	-13.059235	2.279311	4.502911
3.470000	10.424348	2.629903	-181.478407	0.297794	0.516131	-1.219171	77.236397	-29.159094	-7.904122	-111.434734	40.655388	11.450536	0.000000	81.694381	-34.978220	1.787684	-110.647879	40.421977	17.163670	0.000000	-13.048148	2.181495	4.445872
3.475000	10.398643	2.622620	-181.479859	0.297883	0.516057	-1.219156	77.242613	-29.155209	-7.880211	-111.455272	40.640736	11.464849	0.000000	81.733444	-34.994433	1.825066	-110.658267	40.320780	17.220317	0.000000	-13.084528	2.179592	4.454191
3.480000	10.404318	2.642685	-181.467238	0.298011	0.515938	-1.219255	77.253554	-29.146919	-7.905363	-111.473444	40.666753	11.441444	0.000000	81.742689	-35.033583	1.772079	-110.672029	40.413909	17.203018	0.000000	-13.083037	2.193260	4.460565
3.485000	10.390132	2.636348	-181.454445	0.298130	0.515823	-1.219292	77.264793	-29.156858	-7.895979	-111.493662	40.671745	11.434081	0.000000	81.760237	-35.039173	1.776018	-110.686735	40.409137	17.212558	0.000000	-13.101434	2.186643	4.462761
3.490000	10.388369	2.614010	-181.424651	0.298234	0.515708	-1.219289	77.293645	-29.188870	-7.870596	-111.511934	40.679773	11.397838	0.000000	81.770115	-35.024003	1.750409	-110.687366	40.378083	17.287409	0.000000	-13.101783	2.167352	4.446886
3.495000	10.374011	2.611607	-181.418073	0.298321	0.515591	-1.219305	77.309476	-29.191331	-7.856039	-111.536443	40.675034	11.394827	0.000000	81.784196	-35.036111	1.751516	-110.702879	40.381420	17.289997	0.000000	-13.116303	2.168470	4.448395
3.500000	10.360466	2.603873	-181.417214	0.298401	0.515503	-1.219279	77.330371	-29.194878	-7.835058	-111.560873	40.670908	11.392505	0.000000	81.792865	-35.039159	1.777615	-110.721819	40.377800	17.301305	0.000000	-13.133598	2.164436	4.454647
3.505000	10.349726	2.608110	-181.411351	0.298495	0.515415	-1.219314	77.341711	-29.193945	-7.837834	-111.585343	40.665213	11.387199	0.000000	81.804459	-35.057103	1.752957	-110.723082	40.373545	17.300548	0.000000	-13.143345	2.164045	4.458600
3.510000	10.349310	2.588657	-181.415286	0.298608	0.515346	-1.219356	77.373978	-29.184688	-7.802592	-111.591104	40.680983	11.340873	0.000000	81.804064	-35.070864	1.722834	-110.713096	40.378328	17.331404	0.000000	-13.143784	2.141132	4.454087
3.515000	10.338022	2.556401	-181.391067	0.298715	0.515259	-1.219373	77.396397	-29.213637	-7.756430	-111.597771	40.661932	11.371283	0.000000	81.806987	-35.047732	1.729460	-110.720224	40.342637	17.449716	0.000000	-13.148878	2.104632	4.445829
3.520000	10.323901	2.555597	-181.379450	0.298805	0.515169	-1.219439	77.394532	-29.215233	-7.758927	-111.608712	40.673384	11.368787	0.000000	81.807561	-35.061178	1.695369	-110.712595	40.372553	17.441483	0.000000	-13.154857	2.100653	4.431297
3.525000	10.307262	2.547269	-181.381457	0.298878	0.515102	-1.219406	77.410393	-29.223452	-7.738593	-111.629049	40.677748	11.363407	0.000000	81.811774	-35.061480	1.718443	-110.735449	40.368822	17.450788	0.000000	-13.163948	2.103466	4.436602
3.530000	10.293821	2.556849	-181.410150	0.298942	0.515038	-1.219378	77.420235	-29.203038	-7.747754	-111.642944	40.656171	11.325904	0.000000	81.801859	-35.106208	1.679057	-110.746973	40.387777	17.414840	0.000000	-13.165070	2.126542	4.480075
3.535000	10.273511	2.544795	-181.413498	0.299009	0.514967	-1.219357	77.428241	-29.212301	-7.732404	-111.658596	40.651792	11.321335	0.000000	81.807359	-35.114447	1.701862	-110.775879	40.378016	17.427417	0.000000	-13.173591	2.127724	4.475518
3.540000	10.243876	2.534988	-181.395453	0.299099	0.514936	-1.219405	77.400186	-29.225890	-7.724668	-111.653095	40.660284	11.323587	0.000000	81.787206	-35.115625	1.690893	-110.758975	40.330010	17.524136	0.000000	-13.198482	2.119978	4.425437
3.545000	10.214950	2.516778	-181.368692	0.299169	0.514944	-1.219434	77.373817	-29.260539	-7.718619	-111.644931	40.678952	11.356011	0.000000	81.752137	-35.105865	1.665315	-110.743859	40.350155	17.615598	0.000000	-13.213112	2.097326	4.408740
3.550000	10.211483	2.528794	-181.362784	0.299241	0.514975	-1.219438	77.361094	-29.267103	-7.745130	-111.631297	40.680985	11.356510	0.000000	81.749945	-35.129489	1.614810	-110.724852	40.359063	17.604709	0.000000	-13.202826	2.111675	4.407101
